# Tiled2Unity generated file. Do not modify by hand.
# Wavefront file for 'LevelOne_mesh_0001.obj'

# Vertices (Count = 996)
v 0 -32 0
v -32 -32 0
v -32 0 0
v 0 0 0
v -32 -32 0
v -64 -32 0
v -64 0 0
v -32 0 0
v -64 -32 0
v -96 -32 0
v -96 0 0
v -64 0 0
v 0 -64 0
v -32 -64 0
v -32 -32 0
v 0 -32 0
v -32 -64 0
v -64 -64 0
v -64 -32 0
v -32 -32 0
v -64 -64 0
v -96 -64 0
v -96 -32 0
v -64 -32 0
v 0 -96 0
v -32 -96 0
v -32 -64 0
v 0 -64 0
v -32 -96 0
v -64 -96 0
v -64 -64 0
v -32 -64 0
v -64 -96 0
v -96 -96 0
v -96 -64 0
v -64 -64 0
v -192 -96 0
v -224 -96 0
v -224 -64 0
v -192 -64 0
v -224 -96 0
v -256 -96 0
v -256 -64 0
v -224 -64 0
v -256 -96 0
v -288 -96 0
v -288 -64 0
v -256 -64 0
v -288 -96 0
v -320 -96 0
v -320 -64 0
v -288 -64 0
v -320 -96 0
v -352 -96 0
v -352 -64 0
v -320 -64 0
v -352 -96 0
v -384 -96 0
v -384 -64 0
v -352 -64 0
v -384 -96 0
v -416 -96 0
v -416 -64 0
v -384 -64 0
v -416 -96 0
v -448 -96 0
v -448 -64 0
v -416 -64 0
v 0 -128 0
v -32 -128 0
v -32 -96 0
v 0 -96 0
v -32 -128 0
v -64 -128 0
v -64 -96 0
v -32 -96 0
v -64 -128 0
v -96 -128 0
v -96 -96 0
v -64 -96 0
v -192 -128 0
v -224 -128 0
v -224 -96 0
v -192 -96 0
v -224 -128 0
v -256 -128 0
v -256 -96 0
v -224 -96 0
v -256 -128 0
v -288 -128 0
v -288 -96 0
v -256 -96 0
v -288 -128 0
v -320 -128 0
v -320 -96 0
v -288 -96 0
v -320 -128 0
v -352 -128 0
v -352 -96 0
v -320 -96 0
v -352 -128 0
v -384 -128 0
v -384 -96 0
v -352 -96 0
v -384 -128 0
v -416 -128 0
v -416 -96 0
v -384 -96 0
v -416 -128 0
v -448 -128 0
v -448 -96 0
v -416 -96 0
v -448 -128 0
v -480 -128 0
v -480 -96 0
v -448 -96 0
v -480 -128 0
v -512 -128 0
v -512 -96 0
v -480 -96 0
v -512 -128 0
v -544 -128 0
v -544 -96 0
v -512 -96 0
v -544 -128 0
v -576 -128 0
v -576 -96 0
v -544 -96 0
v -576 -128 0
v -608 -128 0
v -608 -96 0
v -576 -96 0
v -608 -128 0
v -640 -128 0
v -640 -96 0
v -608 -96 0
v 0 -160 0
v -32 -160 0
v -32 -128 0
v 0 -128 0
v -32 -160 0
v -64 -160 0
v -64 -128 0
v -32 -128 0
v -64 -160 0
v -96 -160 0
v -96 -128 0
v -64 -128 0
v -160 -160 0
v -192 -160 0
v -192 -128 0
v -160 -128 0
v -192 -160 0
v -224 -160 0
v -224 -128 0
v -192 -128 0
v -224 -160 0
v -256 -160 0
v -256 -128 0
v -224 -128 0
v -256 -160 0
v -288 -160 0
v -288 -128 0
v -256 -128 0
v -288 -160 0
v -320 -160 0
v -320 -128 0
v -288 -128 0
v -320 -160 0
v -352 -160 0
v -352 -128 0
v -320 -128 0
v -352 -160 0
v -384 -160 0
v -384 -128 0
v -352 -128 0
v -384 -160 0
v -416 -160 0
v -416 -128 0
v -384 -128 0
v -416 -160 0
v -448 -160 0
v -448 -128 0
v -416 -128 0
v -448 -160 0
v -480 -160 0
v -480 -128 0
v -448 -128 0
v -480 -160 0
v -512 -160 0
v -512 -128 0
v -480 -128 0
v -512 -160 0
v -544 -160 0
v -544 -128 0
v -512 -128 0
v -544 -160 0
v -576 -160 0
v -576 -128 0
v -544 -128 0
v -576 -160 0
v -608 -160 0
v -608 -128 0
v -576 -128 0
v -608 -160 0
v -640 -160 0
v -640 -128 0
v -608 -128 0
v 0 -192 0
v -32 -192 0
v -32 -160 0
v 0 -160 0
v -32 -192 0
v -64 -192 0
v -64 -160 0
v -32 -160 0
v -64 -192 0
v -96 -192 0
v -96 -160 0
v -64 -160 0
v -160 -192 0
v -192 -192 0
v -192 -160 0
v -160 -160 0
v -192 -192 0
v -224 -192 0
v -224 -160 0
v -192 -160 0
v -224 -192 0
v -256 -192 0
v -256 -160 0
v -224 -160 0
v -288 -192 0
v -320 -192 0
v -320 -160 0
v -288 -160 0
v -320 -192 0
v -352 -192 0
v -352 -160 0
v -320 -160 0
v -352 -192 0
v -384 -192 0
v -384 -160 0
v -352 -160 0
v -384 -192 0
v -416 -192 0
v -416 -160 0
v -384 -160 0
v -416 -192 0
v -448 -192 0
v -448 -160 0
v -416 -160 0
v -448 -192 0
v -480 -192 0
v -480 -160 0
v -448 -160 0
v -480 -192 0
v -512 -192 0
v -512 -160 0
v -480 -160 0
v -512 -192 0
v -544 -192 0
v -544 -160 0
v -512 -160 0
v -544 -192 0
v -576 -192 0
v -576 -160 0
v -544 -160 0
v -576 -192 0
v -608 -192 0
v -608 -160 0
v -576 -160 0
v -608 -192 0
v -640 -192 0
v -640 -160 0
v -608 -160 0
v 0 -224 0
v -32 -224 0
v -32 -192 0
v 0 -192 0
v -32 -224 0
v -64 -224 0
v -64 -192 0
v -32 -192 0
v -64 -224 0
v -96 -224 0
v -96 -192 0
v -64 -192 0
v -160 -224 0
v -192 -224 0
v -192 -192 0
v -160 -192 0
v -192 -224 0
v -224 -224 0
v -224 -192 0
v -192 -192 0
v -224 -224 0
v -256 -224 0
v -256 -192 0
v -224 -192 0
v -288 -224 0
v -320 -224 0
v -320 -192 0
v -288 -192 0
v -320 -224 0
v -352 -224 0
v -352 -192 0
v -320 -192 0
v -352 -224 0
v -384 -224 0
v -384 -192 0
v -352 -192 0
v -384 -224 0
v -416 -224 0
v -416 -192 0
v -384 -192 0
v -416 -224 0
v -448 -224 0
v -448 -192 0
v -416 -192 0
v -448 -224 0
v -480 -224 0
v -480 -192 0
v -448 -192 0
v -480 -224 0
v -512 -224 0
v -512 -192 0
v -480 -192 0
v -512 -224 0
v -544 -224 0
v -544 -192 0
v -512 -192 0
v -544 -224 0
v -576 -224 0
v -576 -192 0
v -544 -192 0
v -576 -224 0
v -608 -224 0
v -608 -192 0
v -576 -192 0
v -608 -224 0
v -640 -224 0
v -640 -192 0
v -608 -192 0
v 0 -256 0
v -32 -256 0
v -32 -224 0
v 0 -224 0
v -32 -256 0
v -64 -256 0
v -64 -224 0
v -32 -224 0
v -64 -256 0
v -96 -256 0
v -96 -224 0
v -64 -224 0
v -192 -256 0
v -224 -256 0
v -224 -224 0
v -192 -224 0
v -224 -256 0
v -256 -256 0
v -256 -224 0
v -224 -224 0
v -256 -256 0
v -288 -256 0
v -288 -224 0
v -256 -224 0
v -352 -256 0
v -384 -256 0
v -384 -224 0
v -352 -224 0
v -384 -256 0
v -416 -256 0
v -416 -224 0
v -384 -224 0
v -416 -256 0
v -448 -256 0
v -448 -224 0
v -416 -224 0
v -448 -256 0
v -480 -256 0
v -480 -224 0
v -448 -224 0
v -480 -256 0
v -512 -256 0
v -512 -224 0
v -480 -224 0
v -512 -256 0
v -544 -256 0
v -544 -224 0
v -512 -224 0
v -544 -256 0
v -576 -256 0
v -576 -224 0
v -544 -224 0
v -576 -256 0
v -608 -256 0
v -608 -224 0
v -576 -224 0
v -608 -256 0
v -640 -256 0
v -640 -224 0
v -608 -224 0
v 0 -288 0
v -32 -288 0
v -32 -256 0
v 0 -256 0
v -32 -288 0
v -64 -288 0
v -64 -256 0
v -32 -256 0
v -64 -288 0
v -96 -288 0
v -96 -256 0
v -64 -256 0
v -96 -288 0
v -128 -288 0
v -128 -256 0
v -96 -256 0
v -128 -288 0
v -160 -288 0
v -160 -256 0
v -128 -256 0
v -160 -288 0
v -192 -288 0
v -192 -256 0
v -160 -256 0
v -192 -288 0
v -224 -288 0
v -224 -256 0
v -192 -256 0
v -224 -288 0
v -256 -288 0
v -256 -256 0
v -224 -256 0
v -256 -288 0
v -288 -288 0
v -288 -256 0
v -256 -256 0
v -288 -288 0
v -320 -288 0
v -320 -256 0
v -288 -256 0
v -320 -288 0
v -352 -288 0
v -352 -256 0
v -320 -256 0
v -352 -288 0
v -384 -288 0
v -384 -256 0
v -352 -256 0
v -384 -288 0
v -416 -288 0
v -416 -256 0
v -384 -256 0
v -416 -288 0
v -448 -288 0
v -448 -256 0
v -416 -256 0
v -448 -288 0
v -480 -288 0
v -480 -256 0
v -448 -256 0
v -480 -288 0
v -512 -288 0
v -512 -256 0
v -480 -256 0
v -512 -288 0
v -544 -288 0
v -544 -256 0
v -512 -256 0
v -544 -288 0
v -576 -288 0
v -576 -256 0
v -544 -256 0
v -576 -288 0
v -608 -288 0
v -608 -256 0
v -576 -256 0
v -608 -288 0
v -640 -288 0
v -640 -256 0
v -608 -256 0
v 0 -320 0
v -32 -320 0
v -32 -288 0
v 0 -288 0
v -32 -320 0
v -64 -320 0
v -64 -288 0
v -32 -288 0
v -64 -320 0
v -96 -320 0
v -96 -288 0
v -64 -288 0
v -96 -320 0
v -128 -320 0
v -128 -288 0
v -96 -288 0
v -128 -320 0
v -160 -320 0
v -160 -288 0
v -128 -288 0
v -160 -320 0
v -192 -320 0
v -192 -288 0
v -160 -288 0
v -192 -320 0
v -224 -320 0
v -224 -288 0
v -192 -288 0
v -224 -320 0
v -256 -320 0
v -256 -288 0
v -224 -288 0
v -256 -320 0
v -288 -320 0
v -288 -288 0
v -256 -288 0
v -288 -320 0
v -320 -320 0
v -320 -288 0
v -288 -288 0
v -320 -320 0
v -352 -320 0
v -352 -288 0
v -320 -288 0
v -352 -320 0
v -384 -320 0
v -384 -288 0
v -352 -288 0
v -384 -320 0
v -416 -320 0
v -416 -288 0
v -384 -288 0
v -416 -320 0
v -448 -320 0
v -448 -288 0
v -416 -288 0
v -448 -320 0
v -480 -320 0
v -480 -288 0
v -448 -288 0
v -480 -320 0
v -512 -320 0
v -512 -288 0
v -480 -288 0
v -512 -320 0
v -544 -320 0
v -544 -288 0
v -512 -288 0
v -544 -320 0
v -576 -320 0
v -576 -288 0
v -544 -288 0
v -576 -320 0
v -608 -320 0
v -608 -288 0
v -576 -288 0
v -608 -320 0
v -640 -320 0
v -640 -288 0
v -608 -288 0
v 0 -352 0
v -32 -352 0
v -32 -320 0
v 0 -320 0
v -32 -352 0
v -64 -352 0
v -64 -320 0
v -32 -320 0
v -64 -352 0
v -96 -352 0
v -96 -320 0
v -64 -320 0
v -96 -352 0
v -128 -352 0
v -128 -320 0
v -96 -320 0
v -128 -352 0
v -160 -352 0
v -160 -320 0
v -128 -320 0
v -160 -352 0
v -192 -352 0
v -192 -320 0
v -160 -320 0
v -192 -352 0
v -224 -352 0
v -224 -320 0
v -192 -320 0
v -224 -352 0
v -256 -352 0
v -256 -320 0
v -224 -320 0
v -256 -352 0
v -288 -352 0
v -288 -320 0
v -256 -320 0
v -288 -352 0
v -320 -352 0
v -320 -320 0
v -288 -320 0
v -320 -352 0
v -352 -352 0
v -352 -320 0
v -320 -320 0
v -352 -352 0
v -384 -352 0
v -384 -320 0
v -352 -320 0
v -384 -352 0
v -416 -352 0
v -416 -320 0
v -384 -320 0
v -416 -352 0
v -448 -352 0
v -448 -320 0
v -416 -320 0
v -448 -352 0
v -480 -352 0
v -480 -320 0
v -448 -320 0
v -480 -352 0
v -512 -352 0
v -512 -320 0
v -480 -320 0
v -512 -352 0
v -544 -352 0
v -544 -320 0
v -512 -320 0
v 0 -384 0
v -32 -384 0
v -32 -352 0
v 0 -352 0
v -32 -384 0
v -64 -384 0
v -64 -352 0
v -32 -352 0
v -64 -384 0
v -96 -384 0
v -96 -352 0
v -64 -352 0
v -128 -384 0
v -160 -384 0
v -160 -352 0
v -128 -352 0
v -160 -384 0
v -192 -384 0
v -192 -352 0
v -160 -352 0
v -192 -384 0
v -224 -384 0
v -224 -352 0
v -192 -352 0
v -224 -384 0
v -256 -384 0
v -256 -352 0
v -224 -352 0
v -256 -384 0
v -288 -384 0
v -288 -352 0
v -256 -352 0
v -288 -384 0
v -320 -384 0
v -320 -352 0
v -288 -352 0
v -320 -384 0
v -352 -384 0
v -352 -352 0
v -320 -352 0
v -352 -384 0
v -384 -384 0
v -384 -352 0
v -352 -352 0
v -384 -384 0
v -416 -384 0
v -416 -352 0
v -384 -352 0
v -416 -384 0
v -448 -384 0
v -448 -352 0
v -416 -352 0
v -448 -384 0
v -480 -384 0
v -480 -352 0
v -448 -352 0
v -480 -384 0
v -512 -384 0
v -512 -352 0
v -480 -352 0
v -512 -384 0
v -544 -384 0
v -544 -352 0
v -512 -352 0
v -544 -384 0
v -576 -384 0
v -576 -352 0
v -544 -352 0
v -576 -384 0
v -608 -384 0
v -608 -352 0
v -576 -352 0
v -608 -384 0
v -640 -384 0
v -640 -352 0
v -608 -352 0
v 0 -416 0
v -32 -416 0
v -32 -384 0
v 0 -384 0
v -32 -416 0
v -64 -416 0
v -64 -384 0
v -32 -384 0
v -64 -416 0
v -96 -416 0
v -96 -384 0
v -64 -384 0
v -128 -416 0
v -160 -416 0
v -160 -384 0
v -128 -384 0
v -160 -416 0
v -192 -416 0
v -192 -384 0
v -160 -384 0
v -192 -416 0
v -224 -416 0
v -224 -384 0
v -192 -384 0
v -224 -416 0
v -256 -416 0
v -256 -384 0
v -224 -384 0
v -256 -416 0
v -288 -416 0
v -288 -384 0
v -256 -384 0
v -288 -416 0
v -320 -416 0
v -320 -384 0
v -288 -384 0
v -320 -416 0
v -352 -416 0
v -352 -384 0
v -320 -384 0
v -352 -416 0
v -384 -416 0
v -384 -384 0
v -352 -384 0
v -384 -416 0
v -416 -416 0
v -416 -384 0
v -384 -384 0
v -416 -416 0
v -448 -416 0
v -448 -384 0
v -416 -384 0
v -448 -416 0
v -480 -416 0
v -480 -384 0
v -448 -384 0
v -480 -416 0
v -512 -416 0
v -512 -384 0
v -480 -384 0
v -544 -416 0
v -576 -416 0
v -576 -384 0
v -544 -384 0
v -576 -416 0
v -608 -416 0
v -608 -384 0
v -576 -384 0
v -608 -416 0
v -640 -416 0
v -640 -384 0
v -608 -384 0
v 0 -448 0
v -32 -448 0
v -32 -416 0
v 0 -416 0
v -32 -448 0
v -64 -448 0
v -64 -416 0
v -32 -416 0
v -64 -448 0
v -96 -448 0
v -96 -416 0
v -64 -416 0
v -160 -448 0
v -192 -448 0
v -192 -416 0
v -160 -416 0
v -192 -448 0
v -224 -448 0
v -224 -416 0
v -192 -416 0
v -224 -448 0
v -256 -448 0
v -256 -416 0
v -224 -416 0
v -544 -448 0
v -576 -448 0
v -576 -416 0
v -544 -416 0
v -576 -448 0
v -608 -448 0
v -608 -416 0
v -576 -416 0
v -608 -448 0
v -640 -448 0
v -640 -416 0
v -608 -416 0
v 0 -480 0
v -32 -480 0
v -32 -448 0
v 0 -448 0
v -32 -480 0
v -64 -480 0
v -64 -448 0
v -32 -448 0
v -64 -480 0
v -96 -480 0
v -96 -448 0
v -64 -448 0
v -96 -480 0
v -128 -480 0
v -128 -448 0
v -96 -448 0
v -128 -480 0
v -160 -480 0
v -160 -448 0
v -128 -448 0
v -160 -480 0
v -192 -480 0
v -192 -448 0
v -160 -448 0
v -192 -480 0
v -224 -480 0
v -224 -448 0
v -192 -448 0
v -224 -480 0
v -256 -480 0
v -256 -448 0
v -224 -448 0
v -256 -480 0
v -288 -480 0
v -288 -448 0
v -256 -448 0
v -288 -480 0
v -320 -480 0
v -320 -448 0
v -288 -448 0
v -320 -480 0
v -352 -480 0
v -352 -448 0
v -320 -448 0
v -352 -480 0
v -384 -480 0
v -384 -448 0
v -352 -448 0
v -384 -480 0
v -416 -480 0
v -416 -448 0
v -384 -448 0
v -416 -480 0
v -448 -480 0
v -448 -448 0
v -416 -448 0
v -448 -480 0
v -480 -480 0
v -480 -448 0
v -448 -448 0
v 0 -512 0
v -32 -512 0
v -32 -480 0
v 0 -480 0
v -32 -512 0
v -64 -512 0
v -64 -480 0
v -32 -480 0
v -64 -512 0
v -96 -512 0
v -96 -480 0
v -64 -480 0
v -96 -512 0
v -128 -512 0
v -128 -480 0
v -96 -480 0
v -128 -512 0
v -160 -512 0
v -160 -480 0
v -128 -480 0
v -160 -512 0
v -192 -512 0
v -192 -480 0
v -160 -480 0
v -192 -512 0
v -224 -512 0
v -224 -480 0
v -192 -480 0
v -224 -512 0
v -256 -512 0
v -256 -480 0
v -224 -480 0
v -256 -512 0
v -288 -512 0
v -288 -480 0
v -256 -480 0
v -288 -512 0
v -320 -512 0
v -320 -480 0
v -288 -480 0
v -320 -512 0
v -352 -512 0
v -352 -480 0
v -320 -480 0
v -352 -512 0
v -384 -512 0
v -384 -480 0
v -352 -480 0
v -384 -512 0
v -416 -512 0
v -416 -480 0
v -384 -480 0
v -416 -512 0
v -448 -512 0
v -448 -480 0
v -416 -480 0
v -448 -512 0
v -480 -512 0
v -480 -480 0
v -448 -480 0
v 0 -544 0
v -32 -544 0
v -32 -512 0
v 0 -512 0
v -32 -544 0
v -64 -544 0
v -64 -512 0
v -32 -512 0
v -64 -544 0
v -96 -544 0
v -96 -512 0
v -64 -512 0
v -96 -544 0
v -128 -544 0
v -128 -512 0
v -96 -512 0
v -128 -544 0
v -160 -544 0
v -160 -512 0
v -128 -512 0
v -160 -544 0
v -192 -544 0
v -192 -512 0
v -160 -512 0
v -192 -544 0
v -224 -544 0
v -224 -512 0
v -192 -512 0
v -224 -544 0
v -256 -544 0
v -256 -512 0
v -224 -512 0
v -256 -544 0
v -288 -544 0
v -288 -512 0
v -256 -512 0
v -288 -544 0
v -320 -544 0
v -320 -512 0
v -288 -512 0
v -320 -544 0
v -352 -544 0
v -352 -512 0
v -320 -512 0
v -352 -544 0
v -384 -544 0
v -384 -512 0
v -352 -512 0
v -384 -544 0
v -416 -544 0
v -416 -512 0
v -384 -512 0
v -416 -544 0
v -448 -544 0
v -448 -512 0
v -416 -512 0
v -448 -544 0
v -480 -544 0
v -480 -512 0
v -448 -512 0

# Texture cooridinates (Count = 102)
vt 0.46875 0.71875
vt 0.5 0.71875
vt 0.5 0.75
vt 0.46875 0.75
vt 0.53125 0.71875
vt 0.53125 0.75
vt 0.5625 0.71875
vt 0.5625 0.75
vt 0.46875 0.6875
vt 0.5 0.6875
vt 0.53125 0.6875
vt 0.5625 0.6875
vt 0.46875 0.90625
vt 0.5 0.90625
vt 0.5 0.9375
vt 0.46875 0.9375
vt 0.53125 0.90625
vt 0.53125 0.9375
vt 0.5625 0.90625
vt 0.5625 0.9375
vt 0.46875 0.875
vt 0.5 0.875
vt 0.46875 0.8125
vt 0.5 0.8125
vt 0.5 0.84375
vt 0.46875 0.84375
vt 0.53125 0.8125
vt 0.53125 0.84375
vt 0.5625 0.8125
vt 0.5625 0.84375
vt 0.53125 0.875
vt 0.5625 0.875
vt 0 0.90625
vt 0.03125 0.90625
vt 0.03125 0.9375
vt 0 0.9375
vt 0.0625 0.90625
vt 0.0625 0.9375
vt 0.09375 0.90625
vt 0.09375 0.9375
vt 0.5625 0.96875
vt 0.53125 0.96875
vt 0.5 0.96875
vt 0.53125 1
vt 0.5 1
vt 0.5625 1
vt 0 0.875
vt 0.03125 0.875
vt 0.0625 0.875
vt 0.09375 0.875
vt 0 0.84375
vt 0.03125 0.84375
vt 0.0625 0.84375
vt 0.09375 0.84375
vt 0.28125 0.71875
vt 0.3125 0.71875
vt 0.3125 0.75
vt 0.28125 0.75
vt 0.34375 0.71875
vt 0.375 0.71875
vt 0.375 0.75
vt 0.34375 0.75
vt 0.1875 0.90625
vt 0.21875 0.90625
vt 0.21875 0.9375
vt 0.1875 0.9375
vt 0.25 0.90625
vt 0.25 0.9375
vt 0.28125 0.90625
vt 0.28125 0.9375
vt 0.28125 0.65625
vt 0.3125 0.65625
vt 0.3125 0.6875
vt 0.28125 0.6875
vt 0.34375 0.65625
vt 0.375 0.65625
vt 0.375 0.6875
vt 0.34375 0.6875
vt 0.1875 0.875
vt 0.21875 0.875
vt 0.1875 0.8125
vt 0.21875 0.8125
vt 0.21875 0.84375
vt 0.1875 0.84375
vt 0.25 0.875
vt 0.28125 0.875
vt 0.25 0.84375
vt 0.28125 0.84375
vt 0.25 0.96875
vt 0.28125 0.96875
vt 0.28125 1
vt 0.25 1
vt 0.21875 0.96875
vt 0.25 0.8125
vt 0.28125 0.8125
vt 0.21875 1
vt 0.53125 0.78125
vt 0.5 0.78125
vt 0.46875 0.65625
vt 0.5 0.65625
vt 0.53125 0.65625
vt 0.5625 0.65625

# Normal
vn 0 0 -1

# Mesh description
g LevelOne_mesh_0001

# Faces
f 1/1/1 2/2/1 3/3/1 4/4/1
f 5/2/1 6/5/1 7/6/1 8/3/1
f 9/5/1 10/7/1 11/8/1 12/6/1
f 13/9/1 14/10/1 15/2/1 16/1/1
f 17/10/1 18/11/1 19/5/1 20/2/1
f 21/11/1 22/12/1 23/7/1 24/5/1
f 25/9/1 26/10/1 27/2/1 28/1/1
f 29/10/1 30/11/1 31/5/1 32/2/1
f 33/11/1 34/12/1 35/7/1 36/5/1
f 37/13/1 38/14/1 39/15/1 40/16/1
f 41/14/1 42/17/1 43/18/1 44/15/1
f 45/14/1 46/17/1 47/18/1 48/15/1
f 49/14/1 50/17/1 51/18/1 52/15/1
f 53/14/1 54/17/1 55/18/1 56/15/1
f 57/14/1 58/17/1 59/18/1 60/15/1
f 61/14/1 62/17/1 63/18/1 64/15/1
f 65/17/1 66/19/1 67/20/1 68/18/1
f 69/9/1 70/10/1 71/2/1 72/1/1
f 73/10/1 74/11/1 75/5/1 76/2/1
f 77/11/1 78/12/1 79/7/1 80/5/1
f 81/21/1 82/22/1 83/14/1 84/13/1
f 85/23/1 86/24/1 87/25/1 88/26/1
f 89/24/1 90/27/1 91/28/1 92/25/1
f 93/27/1 94/29/1 95/30/1 96/28/1
f 97/22/1 98/31/1 99/17/1 100/14/1
f 101/22/1 102/31/1 103/17/1 104/14/1
f 105/27/1 106/29/1 107/30/1 108/28/1
f 109/31/1 110/32/1 111/19/1 112/17/1
f 113/33/1 114/34/1 115/35/1 116/36/1
f 117/34/1 118/37/1 119/38/1 120/35/1
f 121/37/1 122/39/1 123/40/1 124/38/1
f 125/33/1 126/34/1 127/35/1 128/36/1
f 129/34/1 130/37/1 131/38/1 132/35/1
f 133/37/1 134/39/1 135/40/1 136/38/1
f 137/9/1 138/10/1 139/2/1 140/1/1
f 141/10/1 142/11/1 143/5/1 144/2/1
f 145/11/1 146/12/1 147/7/1 148/5/1
f 149/13/1 150/14/1 151/15/1 152/16/1
f 153/18/1 154/20/1 155/41/1 156/42/1
f 157/43/1 158/42/1 159/44/1 160/45/1
f 161/25/1 162/28/1 163/31/1 164/22/1
f 165/25/1 166/28/1 167/31/1 168/22/1
f 169/25/1 170/28/1 171/31/1 172/22/1
f 173/42/1 174/41/1 175/46/1 176/44/1
f 177/24/1 178/27/1 179/28/1 180/25/1
f 181/31/1 182/32/1 183/19/1 184/17/1
f 185/47/1 186/48/1 187/34/1 188/33/1
f 189/48/1 190/49/1 191/37/1 192/34/1
f 193/49/1 194/50/1 195/39/1 196/37/1
f 197/51/1 198/52/1 199/48/1 200/47/1
f 201/52/1 202/53/1 203/49/1 204/48/1
f 205/53/1 206/54/1 207/50/1 208/49/1
f 209/9/1 210/10/1 211/2/1 212/1/1
f 213/10/1 214/11/1 215/5/1 216/2/1
f 217/11/1 218/12/1 219/7/1 220/5/1
f 221/21/1 222/22/1 223/14/1 224/13/1
f 225/22/1 226/31/1 227/17/1 228/14/1
f 229/31/1 230/32/1 231/19/1 232/17/1
f 233/55/1 234/56/1 235/57/1 236/58/1
f 237/59/1 238/60/1 239/61/1 240/62/1
f 241/21/1 242/22/1 243/14/1 244/13/1
f 245/23/1 246/24/1 247/25/1 248/26/1
f 249/31/1 250/32/1 251/19/1 252/17/1
f 253/51/1 254/52/1 255/48/1 256/47/1
f 257/52/1 258/53/1 259/49/1 260/48/1
f 261/53/1 262/54/1 263/50/1 264/49/1
f 265/63/1 266/64/1 267/65/1 268/66/1
f 269/64/1 270/67/1 271/68/1 272/65/1
f 273/67/1 274/69/1 275/70/1 276/68/1
f 277/9/1 278/10/1 279/2/1 280/1/1
f 281/10/1 282/11/1 283/5/1 284/2/1
f 285/11/1 286/12/1 287/7/1 288/5/1
f 289/26/1 290/25/1 291/22/1 292/21/1
f 293/25/1 294/28/1 295/31/1 296/22/1
f 297/28/1 298/30/1 299/32/1 300/31/1
f 301/71/1 302/72/1 303/73/1 304/74/1
f 305/75/1 306/76/1 307/77/1 308/78/1
f 309/26/1 310/25/1 311/22/1 312/21/1
f 313/25/1 314/28/1 315/31/1 316/22/1
f 317/28/1 318/30/1 319/32/1 320/31/1
f 321/33/1 322/34/1 323/35/1 324/36/1
f 325/34/1 326/37/1 327/38/1 328/35/1
f 329/37/1 330/39/1 331/40/1 332/38/1
f 333/79/1 334/80/1 335/64/1 336/63/1
f 337/81/1 338/82/1 339/83/1 340/84/1
f 341/85/1 342/86/1 343/69/1 344/67/1
f 345/9/1 346/10/1 347/2/1 348/1/1
f 349/10/1 350/11/1 351/5/1 352/2/1
f 353/11/1 354/12/1 355/7/1 356/5/1
f 357/13/1 358/14/1 359/15/1 360/16/1
f 361/14/1 362/17/1 363/18/1 364/15/1
f 365/17/1 366/19/1 367/20/1 368/18/1
f 369/13/1 370/14/1 371/15/1 372/16/1
f 373/14/1 374/17/1 375/18/1 376/15/1
f 377/17/1 378/19/1 379/20/1 380/18/1
f 381/47/1 382/48/1 383/34/1 384/33/1
f 385/48/1 386/49/1 387/37/1 388/34/1
f 389/49/1 390/50/1 391/39/1 392/37/1
f 393/79/1 394/80/1 395/64/1 396/63/1
f 397/81/1 398/82/1 399/83/1 400/84/1
f 401/85/1 402/86/1 403/69/1 404/67/1
f 405/9/1 406/10/1 407/2/1 408/1/1
f 409/10/1 410/11/1 411/5/1 412/2/1
f 413/11/1 414/12/1 415/7/1 416/5/1
f 417/63/1 418/64/1 419/65/1 420/66/1
f 421/64/1 422/67/1 423/68/1 424/65/1
f 425/67/1 426/69/1 427/70/1 428/68/1
f 429/21/1 430/22/1 431/14/1 432/13/1
f 433/22/1 434/31/1 435/17/1 436/14/1
f 437/15/1 438/18/1 439/42/1 440/43/1
f 441/14/1 442/17/1 443/18/1 444/15/1
f 445/17/1 446/19/1 447/20/1 448/18/1
f 449/26/1 450/25/1 451/22/1 452/21/1
f 453/25/1 454/28/1 455/31/1 456/22/1
f 457/28/1 458/30/1 459/32/1 460/31/1
f 461/51/1 462/52/1 463/48/1 464/47/1
f 465/52/1 466/53/1 467/49/1 468/48/1
f 469/53/1 470/54/1 471/50/1 472/49/1
f 473/79/1 474/80/1 475/64/1 476/63/1
f 477/81/1 478/82/1 479/83/1 480/84/1
f 481/85/1 482/86/1 483/69/1 484/67/1
f 485/9/1 486/10/1 487/2/1 488/1/1
f 489/10/1 490/11/1 491/5/1 492/2/1
f 493/11/1 494/12/1 495/7/1 496/5/1
f 497/79/1 498/80/1 499/64/1 500/63/1
f 501/80/1 502/85/1 503/67/1 504/64/1
f 505/85/1 506/86/1 507/69/1 508/67/1
f 509/26/1 510/25/1 511/22/1 512/21/1
f 513/25/1 514/28/1 515/31/1 516/22/1
f 517/25/1 518/28/1 519/31/1 520/22/1
f 521/25/1 522/28/1 523/31/1 524/22/1
f 525/28/1 526/30/1 527/32/1 528/31/1
f 529/63/1 530/64/1 531/65/1 532/66/1
f 533/64/1 534/67/1 535/68/1 536/65/1
f 537/64/1 538/67/1 539/68/1 540/65/1
f 541/64/1 542/67/1 543/68/1 544/65/1
f 545/64/1 546/67/1 547/68/1 548/65/1
f 549/67/1 550/69/1 551/70/1 552/68/1
f 553/84/1 554/83/1 555/80/1 556/79/1
f 557/83/1 558/87/1 559/85/1 560/80/1
f 561/87/1 562/88/1 563/86/1 564/85/1
f 565/9/1 566/10/1 567/2/1 568/1/1
f 569/10/1 570/11/1 571/5/1 572/2/1
f 573/11/1 574/12/1 575/7/1 576/5/1
f 577/84/1 578/83/1 579/80/1 580/79/1
f 581/89/1 582/90/1 583/91/1 584/92/1
f 585/65/1 586/68/1 587/89/1 588/93/1
f 589/64/1 590/67/1 591/68/1 592/65/1
f 593/64/1 594/67/1 595/68/1 596/65/1
f 597/64/1 598/67/1 599/68/1 600/65/1
f 601/64/1 602/67/1 603/68/1 604/65/1
f 605/64/1 606/67/1 607/68/1 608/65/1
f 609/68/1 610/70/1 611/90/1 612/89/1
f 613/81/1 614/82/1 615/83/1 616/84/1
f 617/81/1 618/82/1 619/83/1 620/84/1
f 621/94/1 622/95/1 623/88/1 624/87/1
f 625/82/1 626/94/1 627/87/1 628/83/1
f 629/85/1 630/86/1 631/69/1 632/67/1
f 633/9/1 634/10/1 635/2/1 636/1/1
f 637/10/1 638/11/1 639/5/1 640/2/1
f 641/11/1 642/12/1 643/7/1 644/5/1
f 645/79/1 646/80/1 647/64/1 648/63/1
f 649/94/1 650/95/1 651/88/1 652/87/1
f 653/82/1 654/94/1 655/87/1 656/83/1
f 657/94/1 658/95/1 659/88/1 660/87/1
f 661/94/1 662/95/1 663/88/1 664/87/1
f 665/80/1 666/85/1 667/67/1 668/64/1
f 669/81/1 670/82/1 671/83/1 672/84/1
f 673/80/1 674/85/1 675/67/1 676/64/1
f 677/80/1 678/85/1 679/67/1 680/64/1
f 681/94/1 682/95/1 683/88/1 684/87/1
f 685/81/1 686/82/1 687/83/1 688/84/1
f 689/93/1 690/89/1 691/92/1 692/96/1
f 693/87/1 694/88/1 695/86/1 696/85/1
f 697/63/1 698/64/1 699/65/1 700/66/1
f 701/64/1 702/67/1 703/68/1 704/65/1
f 705/67/1 706/69/1 707/70/1 708/68/1
f 709/9/1 710/10/1 711/2/1 712/1/1
f 713/10/1 714/11/1 715/5/1 716/2/1
f 717/11/1 718/12/1 719/7/1 720/5/1
f 721/84/1 722/83/1 723/80/1 724/79/1
f 725/89/1 726/90/1 727/91/1 728/92/1
f 729/82/1 730/94/1 731/87/1 732/83/1
f 733/93/1 734/89/1 735/92/1 736/96/1
f 737/83/1 738/87/1 739/85/1 740/80/1
f 741/83/1 742/87/1 743/85/1 744/80/1
f 745/83/1 746/87/1 747/85/1 748/80/1
f 749/83/1 750/87/1 751/85/1 752/80/1
f 753/83/1 754/87/1 755/85/1 756/80/1
f 757/83/1 758/87/1 759/85/1 760/80/1
f 761/83/1 762/87/1 763/85/1 764/80/1
f 765/87/1 766/88/1 767/86/1 768/85/1
f 769/79/1 770/80/1 771/64/1 772/63/1
f 773/81/1 774/82/1 775/83/1 776/84/1
f 777/85/1 778/86/1 779/69/1 780/67/1
f 781/9/1 782/10/1 783/2/1 784/1/1
f 785/10/1 786/11/1 787/5/1 788/2/1
f 789/11/1 790/12/1 791/7/1 792/5/1
f 793/84/1 794/83/1 795/80/1 796/79/1
f 797/83/1 798/87/1 799/85/1 800/80/1
f 801/87/1 802/88/1 803/86/1 804/85/1
f 805/84/1 806/83/1 807/80/1 808/79/1
f 809/83/1 810/87/1 811/85/1 812/80/1
f 813/87/1 814/88/1 815/86/1 816/85/1
f 817/9/1 818/10/1 819/2/1 820/1/1
f 821/10/1 822/11/1 823/5/1 824/2/1
f 825/3/1 826/6/1 827/97/1 828/98/1
f 829/2/1 830/5/1 831/6/1 832/3/1
f 833/2/1 834/5/1 835/6/1 836/3/1
f 837/2/1 838/5/1 839/6/1 840/3/1
f 841/2/1 842/5/1 843/6/1 844/3/1
f 845/2/1 846/5/1 847/6/1 848/3/1
f 849/2/1 850/5/1 851/6/1 852/3/1
f 853/2/1 854/5/1 855/6/1 856/3/1
f 857/2/1 858/5/1 859/6/1 860/3/1
f 861/2/1 862/5/1 863/6/1 864/3/1
f 865/2/1 866/5/1 867/6/1 868/3/1
f 869/2/1 870/5/1 871/6/1 872/3/1
f 873/5/1 874/7/1 875/8/1 876/6/1
f 877/9/1 878/10/1 879/2/1 880/1/1
f 881/10/1 882/11/1 883/5/1 884/2/1
f 885/10/1 886/11/1 887/5/1 888/2/1
f 889/10/1 890/11/1 891/5/1 892/2/1
f 893/10/1 894/11/1 895/5/1 896/2/1
f 897/10/1 898/11/1 899/5/1 900/2/1
f 901/10/1 902/11/1 903/5/1 904/2/1
f 905/10/1 906/11/1 907/5/1 908/2/1
f 909/10/1 910/11/1 911/5/1 912/2/1
f 913/10/1 914/11/1 915/5/1 916/2/1
f 917/10/1 918/11/1 919/5/1 920/2/1
f 921/10/1 922/11/1 923/5/1 924/2/1
f 925/10/1 926/11/1 927/5/1 928/2/1
f 929/10/1 930/11/1 931/5/1 932/2/1
f 933/11/1 934/12/1 935/7/1 936/5/1
f 937/99/1 938/100/1 939/10/1 940/9/1
f 941/100/1 942/101/1 943/11/1 944/10/1
f 945/100/1 946/101/1 947/11/1 948/10/1
f 949/100/1 950/101/1 951/11/1 952/10/1
f 953/100/1 954/101/1 955/11/1 956/10/1
f 957/100/1 958/101/1 959/11/1 960/10/1
f 961/100/1 962/101/1 963/11/1 964/10/1
f 965/100/1 966/101/1 967/11/1 968/10/1
f 969/100/1 970/101/1 971/11/1 972/10/1
f 973/100/1 974/101/1 975/11/1 976/10/1
f 977/100/1 978/101/1 979/11/1 980/10/1
f 981/100/1 982/101/1 983/11/1 984/10/1
f 985/100/1 986/101/1 987/11/1 988/10/1
f 989/100/1 990/101/1 991/11/1 992/10/1
f 993/101/1 994/102/1 995/12/1 996/11/1

